{"title":"Instant Mom S03E03 HDTV EN-SUB x264-W4F","uid":12509741,"size":186978585,"categoryP":"video","categoryS":"tv_shows","magnet":"?xt=urn:btih:a4714fe3132372c87937f47482605465bb56c61b&amp;dn=Instant+Mom+S03E03+HDTV+EN-SUB+x264-W4F&amp;tr=udp%3A%2F%2Ftracker.leechers-paradise.org%3A6969&amp;tr=udp%3A%2F%2Fzer0day.ch%3A1337&amp;tr=udp%3A%2F%2Fopen.demonii.com%3A1337&amp;tr=udp%3A%2F%2Ftracker.coppersurfer.tk%3A6969&amp;tr=udp%3A%2F%2Fexodus.desync.com%3A6969","seeders":1,"leechers":0,"uploader":"Mulva1989","files":2,"time":1443512844,"description":"Instant Mom S03E03 HDTV EN-SUB x264-W4F\r\n\r\nWhen Stephanie tries to teach James and Aaron about selfless generosity, the whole family starts helping Mr. Ebnetter for the wrong reasons.\r\n\r\nScreens @ \nhttps://yuq.me/users/50/321/HT5UR0AwIg.jpg \nhttps://yuq.me/users/50/321/k8NxD9l1GF.jpg\r\n\r\nFormat : MPEG-4\r\nFormat profile : Base Media\r\nCodec ID : isom\r\nFile size : 178 MiB\r\nDuration : 20mn 30s\r\nOverall bit rate mode : Variable\r\nOverall bit rate : 1 215 Kbps\r\nEncoded date : UTC 2015-09-27 19:33:43\r\nTagged date : UTC 2015-09-27 19:33:43\r\n\r\nVideo\r\nID : 1\r\nFormat : AVC\r\nFormat/Info : Advanced Video Codec\r\nFormat profile :   \r\nFormat settings, CABAC : Yes\r\nFormat settings, ReFrames : 5 frames\r\nCodec ID : avc1\r\nCodec ID/Info : Advanced Video Coding\r\nDuration : 20mn 30s\r\nBit rate : 1 103 Kbps\r\nMaximum bit rate : 2 381 Kbps\r\nWidth : 720 pixels\r\nHeight : 404 pixels\r\nDisplay aspect ratio : 16:9\r\nFrame rate mode : Constant\r\nFrame rate : 23.976 fps\r\nColor space : YUV\r\nChroma subsampling : 4:2:0\r\nBit depth : 8 bits\r\nScan type : Progressive\r\nBits/(Pixel*Frame) : 0.158\r\nStream size : 162 MiB (91%)\r\nWriting library : x264 core 148 r2597 e86f3a1\r\nEncoding settings : cabac=1 / ref=5 / deblock=1:0:0 / analyse=0x3:0x113 / me=umh / subme=8 / psy=1 / psy_rd=1.00:0.00 / mixed_ref=1 / me_range=16 / chroma_me=1 / trellis=1 / 8x8dct=1 / cqm=0 / deadzone=21,11 / fast_pskip=1 / chroma_qp_offset=-2 / threads=12 / lookahead_threads=2 / sliced_threads=0 / nr=0 / decimate=1 / interlaced=0 / bluray_compat=0 / constrained_intra=0 / bframes=3 / b_pyramid=2 / b_adapt=2 / b_bias=0 / direct=3 / weightb=1 / open_gop=0 / weightp=2 / keyint=250 / keyint_min=25 / scenecut=40 / intra_refresh=0 / rc_lookahead=50 / rc=crf / mbtree=1 / crf=20.0 / qcomp=0.60 / qpmin=0 / qpmax=69 / qpstep=4 / ip_ratio=1.40 / aq=1:1.00\r\nEncoded date : UTC 2015-09-27 19:33:43\r\nTagged date : UTC 2015-09-27 19:33:51\r\nMatrix coefficients : BT.709\r\nColor range : Limited\r\n\r\nAudio\r\nID : 2\r\nFormat : AAC\r\nFormat/Info : Advanced Audio Codec\r\nFormat profile : LC\r\nCodec ID : 40\r\nDuration : 20mn 30s\r\nBit rate mode : Variable\r\nBit rate : 109 Kbps\r\nMaximum bit rate : 148 Kbps\r\nChannel(s) : 2 channels\r\nChannel positions : Front: L R\r\nSampling rate : 48.0 KHz\r\nCompression mode : Lossy\r\nStream size : 15.9 MiB (9%)\r\nLanguage : English\r\nEncoded date : UTC 2015-09-27 19:33:50\r\nTagged date : UTC 2015-09-27 19:33:51\r\n\r\nText\r\nID : 3\r\nFormat : Timed Text\r\nCodec ID : tx3g\r\nDuration : 20mn 30s\r\nBit rate mode : Variable\r\nBit rate : 154 bps\r\nStream size : 23.1 KiB (0%)\r\nLanguage : English\r\nEncoded date : UTC 2015-09-27 19:33:51\r\nTagged date : UTC 2015-09-27 19:33:51","torrent":{"xt":"urn:btih:a4714fe3132372c87937f47482605465bb56c61b","amp;dn":"Instant+Mom+S03E03+HDTV+EN-SUB+x264-W4F","amp;tr":["udp%3A%2F%2Ftracker.leechers-paradise.org%3A6969","udp%3A%2F%2Fzer0day.ch%3A1337","udp%3A%2F%2Fopen.demonii.com%3A1337","udp%3A%2F%2Ftracker.coppersurfer.tk%3A6969","udp%3A%2F%2Fexodus.desync.com%3A6969"],"infoHash":"a4714fe3132372c87937f47482605465bb56c61b","infoHashBuffer":{"type":"Buffer","data":[164,113,79,227,19,35,114,200,121,55,244,116,130,96,84,101,187,86,198,27]},"announce":[],"urlList":[]}}